# xmcd CD database file
#
# Track frame offsets:
#	150
#	16577
#	32404
#	46837
#
# Disc length: 881 seconds
#
# Revision: 0
# Processed by: cddbd v1.5.2PL0 Copyright (c) Steve Scherf et al.
# Submitted via: CDex 1.70beta2
#
DISCID=1c036f04
DTITLE=Jack Costanzo - Chicken and Rice
DYEAR=2000
DGENRE=Salsa
TTITLE0=Chicken and Rice
TTITLE1=Sing,Sing,Sing (Scorching The Skins)
TTITLE2=Caravan
TTITLE3=Feeling All Right
EXTD=YEAR: 2000
EXTT0=
EXTT1=
EXTT2=
EXTT3=
PLAYORDER=
